<svg width="52" height="52" viewBox="0 0 52 52" fill="none" xmlns="http://www.w3.org/2000/svg">
<path d="M25.9745 51.9201C23.7819 51.9201 22.2432 49.9776 20.7623 48.1119C19.8295 46.9291 18.8678 45.7174 17.9446 45.3327C16.9541 44.9192 15.3577 45.1019 13.8191 45.275C11.5015 45.5347 9.09732 45.8039 7.60674 44.323C6.12578 42.842 6.39505 40.4379 6.6547 38.1203C6.8278 36.572 7.0009 34.9756 6.597 33.9947C6.21233 33.0715 5.00064 32.1099 3.8178 31.1771C1.94256 29.6961 0 28.1574 0 25.9649C0 23.7723 1.94256 22.2336 3.8178 20.7527C5.00064 19.8198 6.21233 18.8582 6.597 17.935C7.01051 16.9445 6.8278 15.3481 6.6547 13.8095C6.39505 11.4822 6.12578 9.0877 7.60674 7.60674C9.0877 6.12578 11.4919 6.39505 13.8191 6.6547C15.3577 6.8278 16.9637 7.01051 17.9446 6.597C18.8582 6.21233 19.8295 5.00064 20.7623 3.8178C22.2432 1.94256 23.7819 0 25.9745 0C28.1671 0 29.7057 1.94256 31.1867 3.80818C32.1195 4.99102 33.0812 6.20272 34.0044 6.58738C34.9949 7.0009 36.5912 6.81818 38.1299 6.64508C40.4571 6.38543 42.8516 6.11617 44.3422 7.59713C45.8232 9.07808 45.5539 11.4822 45.2943 13.7998C45.1212 15.3481 44.9481 16.9445 45.352 17.9254C45.7366 18.8486 46.9483 19.8102 48.1312 20.743C50.0064 22.224 51.949 23.7627 51.949 25.9552C51.949 28.1478 50.0064 29.6865 48.1312 31.1674C46.9483 32.1003 45.7366 33.0619 45.352 33.9851C44.9384 34.9756 45.1212 36.572 45.2943 38.1106C45.5539 40.4379 45.8232 42.8324 44.3422 44.3134C42.8613 45.7943 40.4571 45.5251 38.1299 45.2654C36.5912 45.0923 34.9852 44.9096 34.0044 45.3231C33.0908 45.7078 32.1195 46.9195 31.1867 48.1023C29.7057 49.9776 28.1671 51.9201 25.9745 51.9201ZM16.3002 43.1594C17.156 43.1594 17.9735 43.2555 18.6851 43.5537C20.0699 44.1306 21.1854 45.5443 22.2721 46.9195C23.4742 48.4389 24.7147 50.0064 25.9745 50.0064C27.2343 50.0064 28.4748 48.4389 29.6769 46.9195C30.7636 45.5443 31.8791 44.1306 33.2639 43.5537C34.7064 42.9574 36.5528 43.1594 38.3414 43.3613C40.2071 43.5729 42.1496 43.7845 42.9767 42.9574C43.8037 42.1304 43.5921 40.1975 43.3806 38.3222C43.1786 36.5335 42.9767 34.6871 43.5729 33.2446C44.1499 31.8598 45.5635 30.7443 46.9387 29.6576C48.4581 28.4556 50.0256 27.215 50.0256 25.9552C50.0256 24.6955 48.4581 23.4549 46.9387 22.2528C45.5635 21.1662 44.1499 20.0506 43.5729 18.6659C42.9767 17.2234 43.1786 15.377 43.3806 13.5883C43.5921 11.713 43.8037 9.7801 42.9767 8.95307C42.1496 8.12604 40.2167 8.33761 38.3414 8.54917C36.5528 8.75112 34.7064 8.95307 33.2639 8.35684C31.8791 7.77984 30.7636 6.3662 29.6769 4.99102C28.4748 3.4716 27.2343 1.90409 25.9745 1.90409C24.7147 1.90409 23.4742 3.4716 22.2721 4.99102C21.1854 6.3662 20.0699 7.77984 18.6851 8.35684C17.2426 8.95307 15.3962 8.75112 13.6075 8.54917C11.7323 8.33761 9.79933 8.12604 8.9723 8.95307C8.14527 9.7801 8.35684 11.713 8.5684 13.5883C8.77035 15.377 8.9723 17.2234 8.37607 18.6659C7.79908 20.0506 6.38543 21.1662 5.01026 22.2528C3.49083 23.4549 1.92332 24.6955 1.92332 25.9552C1.92332 27.215 3.49083 28.4556 5.01026 29.6576C6.38543 30.7443 7.79908 31.8598 8.37607 33.2446C8.9723 34.6871 8.77035 36.5335 8.5684 38.3222C8.35684 40.1975 8.14527 42.1304 8.9723 42.9574C9.79933 43.7845 11.7323 43.5729 13.6075 43.3613C14.5115 43.2652 15.4251 43.1594 16.3002 43.1594Z" fill="#DB1C42"/>
<path d="M25.9748 36.5336C20.1375 36.5336 15.3965 31.7926 15.3965 25.9554C15.3965 20.1181 20.1375 15.3771 25.9748 15.3771C31.812 15.3771 36.553 20.1181 36.553 25.9554C36.553 31.7926 31.812 36.5336 25.9748 36.5336ZM25.9748 17.3004C21.2049 17.3004 17.3198 21.1855 17.3198 25.9554C17.3198 30.7252 21.2049 34.6103 25.9748 34.6103C30.7446 34.6103 34.6297 30.7252 34.6297 25.9554C34.6297 21.1855 30.7446 17.3004 25.9748 17.3004Z" fill="#B4B4B4"/>
</svg>
